<svg xmlns="http://www.w3.org/2000/svg" style="display: none;">
  
    <symbol id="icon-arrow-down" viewBox="0 0 512 512">
      <path d="m479 238c0 10-4 18-11 25l-186 187c-7 7-16 10-26 10-10 0-19-3-26-10l-186-187c-7-6-11-15-11-25 0-10 4-19 11-26l21-22c8-7 17-10 26-10 11 0 19 3 26 10l84 84 0-201c0-10 4-18 11-26 7-7 16-10 26-10l36 0c10 0 19 3 26 10 7 8 11 16 11 26l0 201 84-84c7-7 15-10 26-10 9 0 18 3 26 10l21 22c7 7 11 16 11 26z"/>
    </symbol>
  
    <symbol id="icon-arrow-left" viewBox="0 0 512 512">
      <path d="m475 256l0 37c0 10-3 18-9 25-6 8-14 11-24 11l-201 0 84 84c7 7 10 16 10 26 0 10-3 19-10 26l-22 21c-7 7-15 11-26 11-9 0-18-4-26-11l-186-186c-7-7-10-16-10-26 0-10 3-18 10-26l186-185c8-8 16-11 26-11 10 0 19 3 26 11l22 21c7 7 10 16 10 26 0 10-3 18-10 26l-84 83 201 0c10 0 18 4 24 11 6 7 9 16 9 26z"/>
    </symbol>
  
    <symbol id="icon-arrow-right" viewBox="0 0 512 512">
      <path d="m457 274c0 11-3 19-10 26l-186 186c-8 7-17 11-26 11-10 0-19-4-26-11l-22-21c-7-7-10-16-10-26 0-10 3-19 10-26l84-84-201 0c-10 0-18-3-24-11-6-7-9-15-9-25l0-37c0-10 3-19 9-26 6-7 14-11 24-11l201 0-84-84c-7-6-10-15-10-25 0-11 3-19 10-26l22-21c7-8 16-11 26-11 10 0 18 3 26 11l186 186c7 6 10 15 10 25z"/>
    </symbol>
  
    <symbol id="icon-arrow-up" viewBox="0 0 512 512">
      <path d="m479 277c0 10-4 19-11 26l-21 22c-8 7-16 10-26 10-11 0-19-3-26-10l-84-84 0 201c0 10-4 18-11 24-7 6-16 9-26 9l-36 0c-10 0-19-3-26-9-7-6-11-14-11-24l0-201-84 84c-7 7-15 10-26 10-10 0-18-3-25-10l-22-22c-7-7-11-16-11-26 0-10 4-18 11-26l186-186c7-7 16-10 26-10 10 0 19 3 26 10l186 186c7 8 11 17 11 26z"/>
    </symbol>
  
    <symbol id="icon-arrow-circle-down" viewBox="0 0 512 512">
      <path d="m403 256c0-5-1-9-5-13l-26-26c-3-3-7-5-13-5-5 0-9 2-12 5l-54 54 0-143c0-5-2-9-6-13-3-3-8-5-13-5l-36 0c-5 0-10 2-13 5-4 4-6 8-6 13l0 143-54-54c-3-3-7-5-12-5-5 0-10 2-13 5l-26 26c-4 4-5 8-5 13 0 5 1 10 5 13l103 104 26 26c4 3 8 5 13 5 5 0 9-2 13-5l26-26 103-104c4-3 5-8 5-13z m72 0c0 40-9 77-29 110-20 34-46 60-80 80-33 20-70 29-110 29-40 0-77-9-110-29-34-20-60-46-80-80-20-33-29-70-29-110 0-40 9-77 29-110 20-34 46-60 80-80 33-20 70-29 110-29 40 0 77 9 110 29 34 20 60 46 80 80 20 33 29 70 29 110z"/>
    </symbol>
  
    <symbol id="icon-arrow-circle-left" viewBox="0 0 512 512">
      <path d="m402 274l0-36c0-5-2-10-5-13-4-4-8-6-13-6l-143 0 54-54c3-3 5-7 5-12 0-5-2-10-5-13l-26-26c-4-4-8-5-13-5-5 0-10 1-13 5l-104 103-26 26c-3 4-5 8-5 13 0 5 2 9 5 13l26 26 104 103c3 4 8 5 13 5 5 0 9-1 13-5l26-26c3-3 5-7 5-13 0-5-2-9-5-12l-54-54 143 0c5 0 9-2 13-6 3-3 5-8 5-13z m73-18c0 40-9 77-29 110-20 34-46 60-80 80-33 20-70 29-110 29-40 0-77-9-110-29-34-20-60-46-80-80-20-33-29-70-29-110 0-40 9-77 29-110 20-34 46-60 80-80 33-20 70-29 110-29 40 0 77 9 110 29 34 20 60 46 80 80 20 33 29 70 29 110z"/>
    </symbol>
  
    <symbol id="icon-arrow-circle-right" viewBox="0 0 512 512">
      <path d="m404 256c0-5-2-9-5-13l-26-26-104-103c-3-4-8-5-13-5-5 0-9 1-13 5l-26 26c-3 3-5 7-5 13 0 5 2 9 5 12l54 54-143 0c-5 0-9 2-13 6-3 3-5 8-5 13l0 36c0 5 2 10 5 13 4 4 8 6 13 6l143 0-54 54c-3 3-5 7-5 12 0 5 2 10 5 13l26 26c4 4 8 5 13 5 5 0 10-1 13-5l104-103 26-26c3-4 5-8 5-13z m71 0c0 40-9 77-29 110-20 34-46 60-80 80-33 20-70 29-110 29-40 0-77-9-110-29-34-20-60-46-80-80-20-33-29-70-29-110 0-40 9-77 29-110 20-34 46-60 80-80 33-20 70-29 110-29 40 0 77 9 110 29 34 20 60 46 80 80 20 33 29 70 29 110z"/>
    </symbol>
  
    <symbol id="icon-arrow-circle-up" viewBox="0 0 512 512">
      <path d="m403 256c0-5-1-10-5-13l-103-104-26-26c-4-3-8-5-13-5-5 0-9 2-13 5l-26 26-103 104c-4 3-5 8-5 13 0 5 1 9 5 13l26 26c3 3 7 5 13 5 5 0 9-2 12-5l54-54 0 143c0 5 2 9 6 13 3 3 8 5 13 5l36 0c5 0 10-2 13-5 4-4 6-8 6-13l0-143 54 54c3 3 7 5 12 5 5 0 10-2 13-5l26-26c4-4 5-8 5-13z m72 0c0 40-9 77-29 110-20 34-46 60-80 80-33 20-70 29-110 29-40 0-77-9-110-29-34-20-60-46-80-80-20-33-29-70-29-110 0-40 9-77 29-110 20-34 46-60 80-80 33-20 70-29 110-29 40 0 77 9 110 29 34 20 60 46 80 80 20 33 29 70 29 110z"/>
    </symbol>
  
    <symbol id="icon-file-text" viewBox="0 0 512 512">
      <path d="m456 136c3 3 5 6 8 10l-135 0 0-135c4 3 8 6 10 8z m-136 47l155 0 0 302c0 7-2 14-8 19-5 5-11 8-19 8l-384 0c-8 0-14-3-19-8-6-5-8-12-8-19l0-458c0-7 2-14 8-19 5-5 11-8 19-8l229 0 0 155c0 8 2 15 8 20 5 5 11 8 19 8z m46 210l0-18c0-3-1-5-3-7-2-1-4-2-6-2l-202 0c-2 0-4 1-6 2-2 2-3 4-3 7l0 18c0 3 1 5 3 7 2 1 4 2 6 2l202 0c2 0 4-1 6-2 2-2 3-4 3-7z m0-73l0-18c0-3-1-5-3-7-2-2-4-2-6-2l-202 0c-2 0-4 0-6 2-2 2-3 4-3 7l0 18c0 3 1 5 3 7 2 1 4 2 6 2l202 0c2 0 4-1 6-2 2-2 3-4 3-7z m0-73l0-18c0-3-1-5-3-7-2-2-4-3-6-3l-202 0c-2 0-4 1-6 3-2 2-3 4-3 7l0 18c0 3 1 5 3 6 2 2 4 3 6 3l202 0c2 0 4-1 6-3 2-1 3-3 3-6z"/>
    </symbol>
  
    <symbol id="icon-paper-plane" viewBox="0 0 512 512">
      <path d="m504 3c6 5 9 11 8 18l-73 439c-1 6-4 10-10 13-2 2-5 2-8 2-3 0-5 0-7-1l-130-53-69 84c-3 5-8 7-14 7-2 0-4 0-6-1-4-1-7-4-9-7-2-3-3-6-3-10l0-100 247-303-306 265-113-47c-7-2-10-7-11-15 0-8 3-14 9-17l476-274c2-2 5-3 9-3 4 0 7 1 10 3z"/>
    </symbol>
  
    <symbol id="icon-twitter" viewBox="0 0 512 512">
      <path d="m481 117c-13 18-28 34-46 47 0 3 0 7 0 12 0 25-3 50-11 74-7 25-18 49-33 71-14 23-32 43-52 61-21 17-45 31-74 41-29 11-60 16-92 16-52 0-99-14-142-42 7 1 14 2 22 2 43 0 81-14 115-40-20 0-38-6-54-18-16-12-27-27-33-46 7 1 13 2 18 2 8 0 16-1 24-4-21-4-39-15-53-31-14-17-21-37-21-59l0-1c13 7 27 11 42 11-13-8-23-19-30-32-8-14-11-29-11-44 0-17 4-33 12-47 23 28 51 51 84 68 33 17 69 27 107 29-2-8-3-15-3-22 0-25 9-47 27-65 18-18 40-27 66-27 26 0 49 10 67 29 21-4 40-11 59-22-7 22-21 39-41 51 18-2 35-7 53-14z"/>
    </symbol>
  
    <symbol id="icon-instagram" viewBox="0 0 512 512">
      <path d="m426 407l0-185-39 0c4 12 6 25 6 38 0 24-6 46-18 66-13 20-29 36-50 48-21 12-44 18-69 18-37 0-69-13-96-39-27-26-40-57-40-93 0-13 2-26 6-38l-41 0 0 185c0 5 2 10 5 13 4 3 8 5 13 5l305 0c5 0 9-2 13-5 3-3 5-8 5-13z m-81-152c0-23-9-44-26-60-18-17-38-25-63-25-24 0-45 8-62 25-17 16-26 37-26 60 0 24 9 44 26 61 17 16 38 25 62 25 25 0 45-9 63-25 17-17 26-37 26-61z m81-103l0-47c0-5-2-10-6-14-4-4-8-6-14-6l-50 0c-5 0-10 2-14 6-4 4-5 9-5 14l0 47c0 6 1 10 5 14 4 4 9 6 14 6l50 0c6 0 10-2 14-6 4-4 6-8 6-14z m49-59l0 326c0 16-5 29-16 40-11 11-24 16-40 16l-326 0c-16 0-29-5-40-16-11-11-16-24-16-40l0-326c0-16 5-29 16-40 11-11 24-16 40-16l326 0c16 0 29 5 40 16 11 11 16 24 16 40z"/>
    </symbol>
  
    <symbol id="icon-github" viewBox="0 0 512 512">
      <path d="m338 289c9 0 16 4 23 13c6 9 10 20 10 33c0 13-4 24-10 33c-7 8-14 13-23 13c-10 0-18-5-24-13c-7-9-10-20-10-33c0-13 3-24 10-33c6-9 14-13 24-13m116-120c25 27 38 60 38 99c0 26-3 48-9 68c-6 21-13 37-22 50c-9 12-20 23-33 33c-13 9-25 16-36 21c-11 4-23 8-37 10c-14 2-25 4-32 4c-7 0-15 1-23 1c-2 0-8 0-18 0c-11 1-19 1-26 1c-7 0-15 0-26-1c-10 0-16 0-18 0c-8 0-16-1-23-1c-7 0-18-2-32-4c-14-2-26-6-37-10c-11-5-23-12-36-21c-13-10-24-21-33-33c-9-13-16-29-22-50c-6-20-9-42-9-68c0-39 13-72 38-99c-2-1-3-15 0-41c2-26 8-50 17-72c31 4 70 21 116 54c16-5 38-7 65-7c29 0 50 2 65 7c21-15 41-26 60-35c20-9 34-14 43-16c0 0 13-3 13-3c9 22 15 46 17 72c3 26 2 40 0 41m-197 263c57 0 100-7 129-20c29-14 43-42 43-84c0-25-9-45-28-62c-9-9-20-14-33-16c-12-2-32-2-58 0c-26 2-43 3-53 3c0 0-1 0-1 0c0 0-1 0-1 0c-11 0-25-1-43-2c-17-1-31-2-40-3c-10 0-21 1-33 4c-11 3-21 7-28 14c-18 16-27 36-27 62c0 42 14 70 43 84c29 13 71 20 128 20c0 0 2 0 2 0m-82-143c9 0 17 4 23 13c7 9 10 20 10 33c0 13-3 24-10 33c-6 8-14 13-23 13c-9 0-17-5-24-13c-6-9-10-20-10-33c0-13 4-24 10-33c7-9 15-13 24-13"/>
    </symbol>
  
    <symbol id="icon-facebook" viewBox="0 0 512 512">
      <path d="m421 41c15 0 28 5 39 16c11 10 16 23 16 38c0 0 0 331 0 331c0 15-5 28-16 39c-11 11-24 16-39 16c0 0-83 0-83 0c0 0 0-158 0-158c0 0 58 0 58 0c0 0 0-69 0-69c0 0-58 0-58 0c0 0 0-36 0-36c0-10 5-15 14-15c0 0 44 0 44 0c0 0 0-78 0-78c0 0-49 0-49 0c-25 0-46 9-63 28c-17 18-26 41-26 67c0 0 0 34 0 34c0 0-53 0-53 0c0 0 0 69 0 69c0 0 53 0 53 0c0 0 0 158 0 158c0 0-167 0-167 0c-15 0-28-5-39-16c-11-11-16-24-16-39c0 0 0-331 0-331c0-15 5-28 16-38c11-11 24-16 39-16c0 0 330 0 330 0"/>
    </symbol>
  
    <symbol id="icon-linkedin" viewBox="0 0 512 512">
      <path d="m256 10c68 0 126 24 174 72c48 48 72 106 72 174c0 68-24 125-72 174c-48 48-106 72-174 72c-68 0-125-24-174-72c-48-49-72-106-72-174c0-68 24-126 72-174c49-48 106-72 174-72m-60 347c0 0 0-159 0-159c0 0-50 0-50 0c0 0 0 159 0 159c0 0 50 0 50 0m-25-180c18 0 27-8 27-24c0-17-9-25-27-25c-7 0-14 2-19 7c-5 5-8 11-8 18c0 16 9 24 27 24m207 180c0 0 0-94 0-94c0-22-5-40-16-52c-11-11-24-17-41-17c-23 0-39 8-50 25c0 0-1 0-1 0c0 0-3-21-3-21c0 0-43 0-43 0c1 9 1 26 1 51c0 0 0 108 0 108c0 0 50 0 50 0c0 0 0-92 0-92c0-6 1-10 3-12c4-13 12-20 25-20c16 0 25 12 25 35c0 0 0 89 0 89c0 0 50 0 50 0"/>
    </symbol>
  
    <symbol id="icon-behance" viewBox="0 0 512 512">
      <path d="m442 153l-116 0l0-28l116 0l0 28z m-193 118c8 11 12 25 12 42c0 17-5 32-13 46c-6 8-12 16-20 22c-10 7-20 12-33 14c-12 3-26 4-40 4l-129 0l0-286l138 0c35 0 60 10 74 30c9 12 13 27 13 44c0 17-4 32-13 42c-5 6-12 12-22 16c15 6 26 14 33 26z m-157-45l60 0c13 0 23-3 31-7c7-5 11-14 11-26c0-13-5-22-15-26c-9-3-20-5-34-5l-53 0z m108 83c0-15-6-25-18-31c-7-3-16-5-29-5l-61 0l0 77l60 0c13 0 22-2 29-5c13-7 19-19 19-36z m285-47c1 9 2 23 1 41l-149 0c1 21 8 35 21 43c8 5 18 8 30 8c12 0 22-3 30-10c4-3 8-8 11-14l55 0c-2 13-9 25-20 38c-19 19-45 29-78 29c-27 0-51-8-72-25c-21-17-31-44-31-82c0-36 9-63 28-82c19-19 43-28 73-28c18 0 34 3 49 9c14 7 26 17 35 31c9 12 14 26 17 42z m-54 5c-1-14-6-25-15-32c-8-7-19-11-32-11c-13 0-24 4-32 12c-7 7-12 18-14 31z"/>
    </symbol>
  
    <symbol id="icon-dribbble" viewBox="0 0 512 512">
      <path d="m245 189c-11-18-22-37-34-55c-12-19-22-33-29-43c-7-10-11-16-12-17c-28 13-52 32-71 57c-20 25-33 52-40 83c63 0 124-8 186-25m25 68c3-1 5-2 8-2c-4-10-9-21-17-35c-62 19-131 29-206 29c0 0 0 7 0 7c0 51 17 96 51 134c2-3 4-6 7-11c3-4 10-13 20-25c10-13 21-25 33-36c11-10 27-22 45-33c19-12 39-21 59-28m-138 157c-1 0-1-1-2-1c0 0-2-2-2-2c0 0 4 3 4 3m76-354l0 0m181 44c-39-33-83-50-133-50c-16 0-32 2-47 6c28 37 53 76 75 117c47-18 82-41 104-72c0 0 1-1 1-1m-133 388c-65 0-120-24-166-70c-46-46-70-101-70-166c0-65 24-120 70-166c46-46 101-70 166-70c65 0 120 24 166 70c46 46 70 101 70 166c0 65-24 120-70 166c-46 46-101 70-166 70m35-203c-74 25-126 66-158 124c0 0-1 1-1 1c38 28 79 43 124 43c27 0 53-6 79-17c-8-47-23-98-43-152c0 0-1 1-1 1m8-81c4 8 9 18 13 29c1 0 2 2 3 4c1 3 2 4 2 6c23-3 45-4 66-2c22 1 39 3 52 5c13 2 20 3 22 4c0-47-15-89-45-126c0 0-4 5-4 5c-3 4-8 8-14 14c-6 6-13 12-21 18c-8 7-19 14-32 22c-13 8-27 15-42 21m31 71c17 50 30 98 39 143c47-32 76-76 86-134c-3-2-10-3-20-6c-11-2-26-4-45-6c-20-2-40-1-60 3"/>
    </symbol>
  
    <symbol id="icon-chain-broken" viewBox="0 0 512 512">
      <path d="m144 363l-73 73c-2 2-5 3-7 3-2 0-4-1-7-3-1-2-2-4-2-6 0-3 1-5 2-7l74-73c1-2 4-3 6-3 3 0 5 1 7 3 1 2 2 4 2 7 0 2-1 4-2 6z m48 12l0 91c0 3-1 5-3 7-1 2-3 2-6 2-3 0-5 0-7-2-1-2-2-4-2-7l0-91c0-3 1-5 2-7 2-1 4-2 7-2 3 0 5 1 6 2 2 2 3 4 3 7z m-64-64c0 3-1 5-3 6-1 2-3 3-6 3l-92 0c-2 0-4-1-6-3-2-1-3-3-3-6 0-3 1-5 3-7 2-1 4-2 6-2l92 0c3 0 5 1 6 2 2 2 3 4 3 7z m361 36c0 23-8 43-24 58l-42 42c-16 16-35 24-58 24-23 0-43-8-58-24l-96-96c-4-4-8-9-12-16l68-5 78 78c6 5 12 8 20 8 8 0 14-3 19-8l42-41c6-6 8-12 8-20 0-7-2-14-8-19l-78-79 5-68c7 4 12 8 16 12l96 96c16 17 24 36 24 58z m-176-206l-68 5-78-79c-6-5-12-8-20-8-7 0-14 3-19 8l-42 42c-6 5-8 12-8 19 0 8 2 14 8 19l78 79-5 68c-7-4-12-8-16-12l-96-96c-16-16-24-36-24-58 0-23 8-42 24-58l42-42c16-16 35-23 58-23 23 0 43 8 58 24l96 96c4 4 8 9 12 16z m181 24c0 2-1 4-3 6-2 2-4 3-6 3l-92 0c-3 0-5-1-6-3-2-2-3-4-3-6 0-3 1-5 3-7 1-2 3-3 6-3l92 0c2 0 4 1 6 3 2 2 3 4 3 7z m-156-156l0 92c0 2-1 4-2 6-2 2-4 3-7 3-3 0-5-1-6-3-2-2-3-4-3-6l0-92c0-3 1-5 3-6 1-2 3-3 6-3 3 0 5 1 7 3 1 1 2 3 2 6z m117 43l-74 73c-2 2-4 3-6 3-2 0-5-1-7-3-1-1-2-4-2-6 0-3 1-5 2-7l73-73c2-2 5-2 7-2 2 0 5 0 7 2 1 2 2 4 2 7 0 2-1 4-2 6z"/>
    </symbol>
  
    <symbol id="icon-link" viewBox="0 0 512 512">
      <path d="m434 347c0-7-2-14-8-19l-59-59c-5-6-12-8-20-8-8 0-14 3-20 9 0 0 2 2 5 5 3 3 5 5 6 6 1 1 3 3 5 6 2 2 3 4 3 7 1 2 1 5 1 8 0 7-2 14-8 19-5 5-11 8-19 8-3 0-5 0-8-1-2-1-5-2-7-4-3-1-4-3-6-4-1-1-3-3-6-6-3-3-4-5-5-5-6 5-9 12-9 20 0 8 2 15 8 20l58 59c6 5 12 8 20 8 7 0 14-3 19-8l42-41c6-6 8-12 8-20z m-201-201c0-8-2-14-8-19l-58-60c-6-5-12-8-20-8-7 0-14 3-19 8l-42 42c-6 5-8 12-8 19 0 8 2 14 8 19l59 60c5 5 12 8 20 8 8 0 14-3 20-9 0-1-2-3-5-6-3-3-5-5-6-6-1-1-3-3-5-5-2-3-3-5-3-7-1-3-1-5-1-8 0-8 2-14 8-20 5-5 11-8 19-8 3 0 5 1 8 1 2 1 5 2 7 4 3 2 4 3 6 4 1 1 3 3 6 6 3 3 4 5 5 6 6-6 9-13 9-21z m256 201c0 23-8 43-24 58l-42 42c-16 16-35 24-58 24-23 0-43-8-58-24l-59-60c-16-15-24-35-24-58 0-23 8-43 25-59l-25-25c-16 16-36 25-59 25-23 0-43-8-59-24l-59-60c-16-16-24-35-24-58 0-23 8-42 24-58l42-42c16-16 35-23 58-23 23 0 43 8 58 24l59 59c16 16 24 35 24 58 0 23-8 43-25 60l25 25c16-17 36-25 59-25 23 0 43 8 59 24l59 59c16 16 24 36 24 58z"/>
    </symbol>
  
</svg>
